<svg height="1806" width="720" xmlns="http://www.w3.org/2000/svg">
<rect height="1806" fill="#555" width="720"></rect>
<text fill="#7f7" font-family="Courier New" font-size="12" xml:space="preserve">
<tspan x="10" y="26">└─┬ grunt-contrib-qunit@1.3.0 </tspan>
<tspan x="10" y="42">  └─┬ grunt-lib-phantomjs@1.1.0 </tspan>
<tspan x="10" y="58">    ├── eventemitter2@0.4.14 </tspan>
<tspan x="10" y="74">    ├─┬ phantomjs-prebuilt@2.1.14 </tspan>
<tspan x="10" y="90">    │ ├── es6-promise@4.0.5 </tspan>
<tspan x="10" y="106">    │ ├─┬ extract-zip@1.5.0 </tspan>
<tspan x="10" y="122">    │ │ ├─┬ concat-stream@1.5.0 </tspan>
<tspan x="10" y="138">    │ │ │ ├─┬ readable-stream@2.0.6 </tspan>
<tspan x="10" y="154">    │ │ │ │ ├── core-util-is@1.0.2 </tspan>
<tspan x="10" y="170">    │ │ │ │ ├── isarray@1.0.0 </tspan>
<tspan x="10" y="186">    │ │ │ │ ├── process-nextick-args@1.0.7 </tspan>
<tspan x="10" y="202">    │ │ │ │ ├── string_decoder@0.10.31 </tspan>
<tspan x="10" y="218">    │ │ │ │ └── util-deprecate@1.0.2 </tspan>
<tspan x="10" y="234">    │ │ │ └── typedarray@0.0.6 </tspan>
<tspan x="10" y="250">    │ │ ├── debug@0.7.4 </tspan>
<tspan x="10" y="266">    │ │ ├─┬ mkdirp@0.5.0 </tspan>
<tspan x="10" y="282">    │ │ │ └── minimist@0.0.8 </tspan>
<tspan x="10" y="298">    │ │ └─┬ yauzl@2.4.1 </tspan>
<tspan x="10" y="314">    │ │   └─┬ fd-slicer@1.0.1 </tspan>
<tspan x="10" y="330">    │ │     └── pend@1.2.0 </tspan>
<tspan x="10" y="346">    │ ├─┬ fs-extra@1.0.0 </tspan>
<tspan x="10" y="362">    │ │ ├── graceful-fs@4.1.11 </tspan>
<tspan x="10" y="378">    │ │ ├── jsonfile@2.4.0 </tspan>
<tspan x="10" y="394">    │ │ └── klaw@1.3.1 </tspan>
<tspan x="10" y="410">    │ ├─┬ hasha@2.2.0 </tspan>
<tspan x="10" y="426">    │ │ ├── is-stream@1.1.0 </tspan>
<tspan x="10" y="442">    │ │ └─┬ pinkie-promise@2.0.1 </tspan>
<tspan x="10" y="458">    │ │   └── pinkie@2.0.4 </tspan>
<tspan x="10" y="474">    │ ├── kew@0.7.0 </tspan>
<tspan x="10" y="490">    │ ├── progress@1.1.8 </tspan>
<tspan x="10" y="506">    │ ├─┬ request@2.79.0 </tspan>
<tspan x="10" y="522">    │ │ ├── aws-sign2@0.6.0 </tspan>
<tspan x="10" y="538">    │ │ ├── aws4@1.6.0 </tspan>
<tspan x="10" y="554">    │ │ ├── caseless@0.11.0 </tspan>
<tspan x="10" y="570">    │ │ ├─┬ combined-stream@1.0.5 </tspan>
<tspan x="10" y="586">    │ │ │ └── delayed-stream@1.0.0 </tspan>
<tspan x="10" y="602">    │ │ ├── extend@3.0.0 </tspan>
<tspan x="10" y="618">    │ │ ├── forever-agent@0.6.1 </tspan>
<tspan x="10" y="634">    │ │ ├─┬ form-data@2.1.2 </tspan>
<tspan x="10" y="650">    │ │ │ └── asynckit@0.4.0 </tspan>
<tspan x="10" y="666">    │ │ ├─┬ har-validator@2.0.6 </tspan>
<tspan x="10" y="682">    │ │ │ ├─┬ chalk@1.1.3 </tspan>
<tspan x="10" y="698">    │ │ │ │ ├── ansi-styles@2.2.1 </tspan>
<tspan x="10" y="714">    │ │ │ │ ├── escape-string-regexp@1.0.5 </tspan>
<tspan x="10" y="730">    │ │ │ │ ├─┬ has-ansi@2.0.0 </tspan>
<tspan x="10" y="746">    │ │ │ │ │ └── ansi-regex@2.1.1 </tspan>
<tspan x="10" y="762">    │ │ │ │ ├── strip-ansi@3.0.1 </tspan>
<tspan x="10" y="778">    │ │ │ │ └── supports-color@2.0.0 </tspan>
<tspan x="10" y="794">    │ │ │ ├─┬ commander@2.9.0 </tspan>
<tspan x="10" y="810">    │ │ │ │ └── graceful-readlink@1.0.1 </tspan>
<tspan x="10" y="826">    │ │ │ └─┬ is-my-json-valid@2.16.0 </tspan>
<tspan x="10" y="842">    │ │ │   ├── generate-function@2.0.0 </tspan>
<tspan x="10" y="858">    │ │ │   ├─┬ generate-object-property@1.2.0 </tspan>
<tspan x="10" y="874">    │ │ │   │ └── is-property@1.0.2 </tspan>
<tspan x="10" y="890">    │ │ │   ├── jsonpointer@4.0.1 </tspan>
<tspan x="10" y="906">    │ │ │   └── xtend@4.0.1 </tspan>
<tspan x="10" y="922">    │ │ ├─┬ hawk@3.1.3 </tspan>
<tspan x="10" y="938">    │ │ │ ├── boom@2.10.1 </tspan>
<tspan x="10" y="954">    │ │ │ ├── cryptiles@2.0.5 </tspan>
<tspan x="10" y="970">    │ │ │ ├── hoek@2.16.3 </tspan>
<tspan x="10" y="986">    │ │ │ └── sntp@1.0.9 </tspan>
<tspan x="10" y="1002">    │ │ ├─┬ http-signature@1.1.1 </tspan>
<tspan x="10" y="1018">    │ │ │ ├── assert-plus@0.2.0 </tspan>
<tspan x="10" y="1034">    │ │ │ ├─┬ jsprim@1.4.0 </tspan>
<tspan x="10" y="1050">    │ │ │ │ ├── assert-plus@1.0.0 </tspan>
<tspan x="10" y="1066">    │ │ │ │ ├── extsprintf@1.0.2 </tspan>
<tspan x="10" y="1082">    │ │ │ │ ├── json-schema@0.2.3 </tspan>
<tspan x="10" y="1098">    │ │ │ │ └── verror@1.3.6 </tspan>
<tspan x="10" y="1114">    │ │ │ └─┬ sshpk@1.11.0 </tspan>
<tspan x="10" y="1130">    │ │ │   ├── asn1@0.2.3 </tspan>
<tspan x="10" y="1146">    │ │ │   ├── assert-plus@1.0.0 </tspan>
<tspan x="10" y="1162">    │ │ │   ├── bcrypt-pbkdf@1.0.1 </tspan>
<tspan x="10" y="1178">    │ │ │   ├─┬ dashdash@1.14.1 </tspan>
<tspan x="10" y="1194">    │ │ │   │ └── assert-plus@1.0.0 </tspan>
<tspan x="10" y="1210">    │ │ │   ├── ecc-jsbn@0.1.1 </tspan>
<tspan x="10" y="1226">    │ │ │   ├─┬ getpass@0.1.6 </tspan>
<tspan x="10" y="1242">    │ │ │   │ └── assert-plus@1.0.0 </tspan>
<tspan x="10" y="1258">    │ │ │   ├── jodid25519@1.0.2 </tspan>
<tspan x="10" y="1274">    │ │ │   ├── jsbn@0.1.1 </tspan>
<tspan x="10" y="1290">    │ │ │   └── tweetnacl@0.14.5 </tspan>
<tspan x="10" y="1306">    │ │ ├── is-typedarray@1.0.0 </tspan>
<tspan x="10" y="1322">    │ │ ├── isstream@0.1.2 </tspan>
<tspan x="10" y="1338">    │ │ ├── json-stringify-safe@5.0.1 </tspan>
<tspan x="10" y="1354">    │ │ ├─┬ mime-types@2.1.15 </tspan>
<tspan x="10" y="1370">    │ │ │ └── mime-db@1.27.0 </tspan>
<tspan x="10" y="1386">    │ │ ├── oauth-sign@0.8.2 </tspan>
<tspan x="10" y="1402">    │ │ ├── qs@6.3.2 </tspan>
<tspan x="10" y="1418">    │ │ ├── stringstream@0.0.5 </tspan>
<tspan x="10" y="1434">    │ │ ├─┬ tough-cookie@2.3.2 </tspan>
<tspan x="10" y="1450">    │ │ │ └── punycode@1.4.1 </tspan>
<tspan x="10" y="1466">    │ │ ├── tunnel-agent@0.4.3 </tspan>
<tspan x="10" y="1482">    │ │ └── uuid@3.0.1 </tspan>
<tspan x="10" y="1498">    │ ├─┬ request-progress@2.0.1 </tspan>
<tspan x="10" y="1514">    │ │ └── throttleit@1.0.0 </tspan>
<tspan x="10" y="1530">    │ └─┬ which@1.2.14 </tspan>
<tspan x="10" y="1546">    │   └── isexe@2.0.0 </tspan>
<tspan x="10" y="1562">    ├─┬ rimraf@2.6.1 </tspan>
<tspan x="10" y="1578">    │ └─┬ glob@7.1.1 </tspan>
<tspan x="10" y="1594">    │   ├── fs.realpath@1.0.0 </tspan>
<tspan x="10" y="1610">    │   ├─┬ inflight@1.0.6 </tspan>
<tspan x="10" y="1626">    │   │ └── wrappy@1.0.2 </tspan>
<tspan x="10" y="1642">    │   ├── inherits@2.0.3 </tspan>
<tspan x="10" y="1658">    │   ├─┬ minimatch@3.0.3 </tspan>
<tspan x="10" y="1674">    │   │ └─┬ brace-expansion@1.1.6 </tspan>
<tspan x="10" y="1690">    │   │   ├── balanced-match@0.4.2 </tspan>
<tspan x="10" y="1706">    │   │   └── concat-map@0.0.1 </tspan>
<tspan x="10" y="1722">    │   ├── once@1.4.0 </tspan>
<tspan x="10" y="1738">    │   └── path-is-absolute@1.0.1 </tspan>
<tspan x="10" y="1754">    ├── semver@5.3.0 </tspan>
<tspan x="10" y="1770">    └─┬ temporary@0.0.8 </tspan>
<tspan x="10" y="1786">      └── package@1.0.1</tspan>
</text>
</svg>
